<svg width="547" height="221" viewBox="0 0 547 221" fill="none" xmlns="http://www.w3.org/2000/svg">
<path fill-rule="evenodd" clip-rule="evenodd" d="M537 10H228V44H218V185H228V211H537V10ZM547 0V221H218V185V44V0H547Z" fill="#FD6F2D"/>
<path d="M489.933 111.406C494.865 113.507 498.61 116.475 501.167 120.311C503.725 124.147 505.003 128.805 505.003 134.285C505.003 142.962 501.852 149.584 495.55 154.15C489.248 158.717 480.115 161 468.15 161H432.941V65.6484H469.794C480.115 65.6484 488.061 67.8404 493.632 72.2244C499.204 76.5171 501.989 82.6821 501.989 90.7194C501.989 100.309 497.971 107.205 489.933 111.406ZM451.025 81.5404V104.282H468.15C473.082 104.282 476.781 103.278 479.247 101.268C481.713 99.2591 482.946 96.3364 482.946 92.5004C482.946 88.2991 481.85 85.4221 479.658 83.8694C477.558 82.3168 473.767 81.5404 468.287 81.5404H451.025ZM468.15 144.971C474.635 144.971 479.202 144.058 481.85 142.231C484.59 140.313 485.96 137.071 485.96 132.504C485.96 128.212 484.499 125.061 481.576 123.051C478.745 121.042 474.315 120.037 468.287 120.037H451.025V144.971H468.15Z" fill="#2F2F2F"/>
<path d="M365.363 162.644C352.667 162.644 342.712 158.991 335.497 151.684C328.281 144.378 324.674 134.331 324.674 121.544V65.6484H342.758V121.133C342.758 129.901 344.722 136.386 348.649 140.587C352.576 144.697 358.147 146.752 365.363 146.752C372.669 146.752 378.241 144.652 382.077 140.45C386.004 136.158 387.968 129.719 387.968 121.133V65.6484H406.052V121.544C406.052 134.331 402.444 144.378 395.229 151.684C388.014 158.991 378.058 162.644 365.363 162.644Z" fill="#2F2F2F"/>
<path d="M297.849 65.6484V161H279.765V119.078H234.555V161H216.471V65.6484H234.555V103.049H279.765V65.6484H297.849Z" fill="#2F2F2F"/>
<path d="M106.285 113.735C106.285 103.597 108.203 94.7832 112.039 87.2939C115.966 79.8046 121.583 74.0506 128.89 70.0319C136.288 66.0132 145.01 64.0039 155.057 64.0039C160.811 64.0039 165.971 64.5976 170.538 65.7849C175.105 66.9722 179.58 68.6162 183.964 70.7169V87.5679H183.416C180.22 85.6499 176.246 84.0516 171.497 82.7729C166.839 81.4029 161.816 80.7179 156.427 80.7179C135.694 80.7179 125.328 91.6322 125.328 113.461C125.328 124.147 127.794 132.23 132.726 137.71C137.658 143.19 144.873 145.93 154.372 145.93C162.044 145.93 167.752 144.332 171.497 141.135V126.75H153.413V111.68H189.581V150.725C182.274 155.2 175.972 158.306 170.675 160.041C165.378 161.776 159.761 162.644 153.824 162.644C143.777 162.644 135.192 160.635 128.068 156.616C120.944 152.597 115.51 146.935 111.765 139.628C108.112 132.23 106.285 123.599 106.285 113.735Z" fill="#FD6F2D"/>
<path d="M81.378 65.6484V161H63.294L18.084 97.9804V161H0V65.6484H18.084L63.294 128.531V65.6484H81.378Z" fill="#FD6F2D"/>
<path d="M16.575 178.296V195H14.463L5.487 182.112V195H3.375V178.296H5.487L14.463 191.184V178.296H16.575ZM32.3383 189.432H23.4583C23.5863 190.664 23.9943 191.648 24.6823 192.384C25.3863 193.104 26.3383 193.464 27.5383 193.464C28.2583 193.464 28.9543 193.32 29.6263 193.032C30.3143 192.728 31.0103 192.288 31.7143 191.712H31.8103V193.824C31.1063 194.336 30.4103 194.712 29.7223 194.952C29.0343 195.176 28.2983 195.288 27.5143 195.288C26.2343 195.288 25.1223 195.008 24.1783 194.448C23.2343 193.888 22.5063 193.112 21.9943 192.12C21.4983 191.112 21.2503 189.96 21.2503 188.664C21.2503 187.432 21.4743 186.328 21.9223 185.352C22.3863 184.36 23.0423 183.584 23.8903 183.024C24.7383 182.464 25.7303 182.184 26.8663 182.184C28.0183 182.184 29.0023 182.472 29.8183 183.048C30.6503 183.608 31.2743 184.384 31.6903 185.376C32.1223 186.368 32.3383 187.488 32.3383 188.736V189.432ZM26.8903 183.936C25.8983 183.936 25.1063 184.296 24.5143 185.016C23.9223 185.736 23.5703 186.664 23.4583 187.8H30.1543C30.0423 186.632 29.7143 185.696 29.1703 184.992C28.6423 184.288 27.8823 183.936 26.8903 183.936ZM44.4729 195L40.5129 189.816L36.6729 195H34.3449L39.3849 188.376L34.8729 182.472H37.4169L40.8489 186.96L44.1609 182.472H46.4889L41.9769 188.424L47.0169 195H44.4729ZM52.5026 182.472H55.9586V184.296H52.5026V191.472C52.5026 192.064 52.6306 192.544 52.8866 192.912C53.1586 193.264 53.5506 193.44 54.0626 193.44C54.4146 193.44 54.7266 193.408 54.9986 193.344C55.2866 193.264 55.6066 193.144 55.9586 192.984V194.856C55.5906 195.032 55.2386 195.144 54.9026 195.192C54.5666 195.256 54.1586 195.288 53.6786 195.288C52.6546 195.288 51.8466 194.96 51.2546 194.304C50.6786 193.648 50.3906 192.776 50.3906 191.688V184.296H47.9906V182.472H50.3906V179.112L52.5026 178.008V182.472ZM66.1506 186.672C66.1506 184.944 66.4546 183.432 67.0626 182.136C67.6706 180.824 68.5666 179.808 69.7506 179.088C70.9506 178.368 72.3906 178.008 74.0706 178.008C75.0306 178.008 75.9346 178.128 76.7826 178.368C77.6306 178.592 78.3826 178.904 79.0386 179.304L79.0146 181.68H78.9186C78.2946 181.136 77.5506 180.712 76.6866 180.408C75.8386 180.088 74.9426 179.928 73.9986 179.928C72.1266 179.928 70.7266 180.536 69.7986 181.752C68.8866 182.952 68.4306 184.592 68.4306 186.672C68.4306 188.736 68.8786 190.368 69.7746 191.568C70.6866 192.768 72.0546 193.368 73.8786 193.368C74.6306 193.368 75.3186 193.272 75.9426 193.08C76.5666 192.872 77.1106 192.584 77.5746 192.216V188.64H74.0466V186.792H79.6866V193.32C78.6946 193.976 77.7506 194.472 76.8546 194.808C75.9746 195.128 74.9746 195.288 73.8546 195.288C72.2226 195.288 70.8226 194.928 69.6546 194.208C68.5026 193.488 67.6306 192.48 67.0386 191.184C66.4466 189.888 66.1506 188.384 66.1506 186.672ZM95.2211 189.432H86.3411C86.4691 190.664 86.8771 191.648 87.5651 192.384C88.2691 193.104 89.2211 193.464 90.4211 193.464C91.1411 193.464 91.8371 193.32 92.5091 193.032C93.1971 192.728 93.8931 192.288 94.5971 191.712H94.6931V193.824C93.9891 194.336 93.2931 194.712 92.6051 194.952C91.9171 195.176 91.1811 195.288 90.3971 195.288C89.1171 195.288 88.0051 195.008 87.0611 194.448C86.1171 193.888 85.3891 193.112 84.8771 192.12C84.3811 191.112 84.1331 189.96 84.1331 188.664C84.1331 187.432 84.3571 186.328 84.8051 185.352C85.2691 184.36 85.9251 183.584 86.7731 183.024C87.6211 182.464 88.6131 182.184 89.7491 182.184C90.9011 182.184 91.8851 182.472 92.7011 183.048C93.5331 183.608 94.1571 184.384 94.5731 185.376C95.0051 186.368 95.2211 187.488 95.2211 188.736V189.432ZM89.7731 183.936C88.7811 183.936 87.9891 184.296 87.3971 185.016C86.8051 185.736 86.4531 186.664 86.3411 187.8H93.0371C92.9251 186.632 92.5971 185.696 92.0531 184.992C91.5251 184.288 90.7651 183.936 89.7731 183.936ZM105.94 182.184C107.124 182.184 108.02 182.552 108.628 183.288C109.236 184.008 109.54 185.016 109.54 186.312V195H107.428V186.6C107.428 185.8 107.26 185.184 106.924 184.752C106.588 184.304 106.076 184.08 105.388 184.08C104.604 184.08 103.94 184.208 103.396 184.464C102.868 184.72 102.276 185.136 101.62 185.712V195H99.5078V185.256L98.9798 182.472H101.092L101.428 184.224C102.18 183.504 102.876 182.984 103.516 182.664C104.172 182.344 104.98 182.184 105.94 182.184ZM124.963 189.432H116.083C116.211 190.664 116.619 191.648 117.307 192.384C118.011 193.104 118.963 193.464 120.163 193.464C120.883 193.464 121.579 193.32 122.251 193.032C122.939 192.728 123.635 192.288 124.339 191.712H124.435V193.824C123.731 194.336 123.035 194.712 122.347 194.952C121.659 195.176 120.923 195.288 120.139 195.288C118.859 195.288 117.747 195.008 116.803 194.448C115.859 193.888 115.131 193.112 114.619 192.12C114.123 191.112 113.875 189.96 113.875 188.664C113.875 187.432 114.099 186.328 114.547 185.352C115.011 184.36 115.667 183.584 116.515 183.024C117.363 182.464 118.355 182.184 119.491 182.184C120.643 182.184 121.627 182.472 122.443 183.048C123.275 183.608 123.899 184.384 124.315 185.376C124.747 186.368 124.963 187.488 124.963 188.736V189.432ZM119.515 183.936C118.523 183.936 117.731 184.296 117.139 185.016C116.547 185.736 116.195 186.664 116.083 187.8H122.779C122.667 186.632 122.339 185.696 121.795 184.992C121.267 184.288 120.507 183.936 119.515 183.936ZM135.274 182.184V184.512H134.914C134.162 184.512 133.482 184.648 132.874 184.92C132.282 185.192 131.786 185.584 131.386 186.096V195H129.274V185.256L128.746 182.472H130.858L131.29 184.704C131.946 183.744 132.498 183.088 132.946 182.736C133.41 182.368 133.938 182.184 134.53 182.184H135.274ZM146.864 195L146.528 193.2C145.904 193.888 145.224 194.408 144.488 194.76C143.768 195.112 142.952 195.288 142.04 195.288C140.904 195.288 139.984 194.968 139.28 194.328C138.576 193.672 138.224 192.808 138.224 191.736C138.224 190.344 138.784 189.32 139.904 188.664C141.024 188.008 142.464 187.68 144.224 187.68C144.864 187.68 145.568 187.72 146.336 187.8V186.936C146.336 186.072 146.096 185.384 145.616 184.872C145.152 184.344 144.544 184.08 143.792 184.08C142.896 184.08 142.08 184.2 141.344 184.44C140.624 184.68 139.88 185.056 139.112 185.568V183.528C139.864 183.032 140.632 182.688 141.416 182.496C142.2 182.288 143.096 182.184 144.104 182.184C145.384 182.184 146.424 182.592 147.224 183.408C148.04 184.224 148.448 185.304 148.448 186.648V192.216L148.976 195H146.864ZM142.472 193.512C143.24 193.512 143.928 193.352 144.536 193.032C145.144 192.712 145.744 192.248 146.336 191.64V189.288H144.128C141.712 189.288 140.504 190.064 140.504 191.616C140.504 192.192 140.688 192.656 141.056 193.008C141.424 193.344 141.896 193.512 142.472 193.512ZM155.698 182.472H159.154V184.296H155.698V191.472C155.698 192.064 155.826 192.544 156.082 192.912C156.354 193.264 156.746 193.44 157.258 193.44C157.61 193.44 157.922 193.408 158.194 193.344C158.482 193.264 158.802 193.144 159.154 192.984V194.856C158.786 195.032 158.434 195.144 158.098 195.192C157.762 195.256 157.354 195.288 156.874 195.288C155.85 195.288 155.042 194.96 154.45 194.304C153.874 193.648 153.586 192.776 153.586 191.688V184.296H151.186V182.472H153.586V179.112L155.698 178.008V182.472ZM163.555 179.64C163.107 179.64 162.739 179.496 162.451 179.208C162.179 178.92 162.043 178.552 162.043 178.104C162.043 177.656 162.179 177.288 162.451 177C162.739 176.712 163.107 176.568 163.555 176.568C164.003 176.568 164.363 176.712 164.635 177C164.923 177.288 165.067 177.656 165.067 178.104C165.067 178.552 164.923 178.92 164.635 179.208C164.363 179.496 164.003 179.64 163.555 179.64ZM164.611 182.472V195H162.499V182.472H164.611ZM174.602 195.288C172.778 195.288 171.354 194.696 170.33 193.512C169.306 192.312 168.794 190.72 168.794 188.736C168.794 186.752 169.306 185.168 170.33 183.984C171.354 182.784 172.778 182.184 174.602 182.184C176.426 182.184 177.85 182.784 178.874 183.984C179.898 185.168 180.41 186.752 180.41 188.736C180.41 190.72 179.898 192.312 178.874 193.512C177.85 194.696 176.426 195.288 174.602 195.288ZM174.602 193.464C175.77 193.464 176.65 193.032 177.242 192.168C177.834 191.304 178.13 190.16 178.13 188.736C178.13 187.312 177.834 186.168 177.242 185.304C176.65 184.44 175.77 184.008 174.602 184.008C173.434 184.008 172.554 184.44 171.962 185.304C171.386 186.168 171.098 187.312 171.098 188.736C171.098 190.16 171.386 191.304 171.962 192.168C172.554 193.032 173.434 193.464 174.602 193.464ZM191.369 182.184C192.553 182.184 193.449 182.552 194.057 183.288C194.665 184.008 194.969 185.016 194.969 186.312V195H192.857V186.6C192.857 185.8 192.689 185.184 192.353 184.752C192.017 184.304 191.505 184.08 190.817 184.08C190.033 184.08 189.369 184.208 188.825 184.464C188.297 184.72 187.705 185.136 187.049 185.712V195H184.937V185.256L184.409 182.472H186.521L186.857 184.224C187.609 183.504 188.305 182.984 188.945 182.664C189.601 182.344 190.409 182.184 191.369 182.184Z" fill="#2F2F2F"/>
</svg>
